<svg xmlns="http://www.w3.org/2000/svg" xmlns:xlink="http://www.w3.org/1999/xlink" width="126px" height="114px" viewBox="0 0 126 114">
  <g fill="#FD4024" fill-rule="evenodd">
    <path d="M80.5,18.8201616 L80.5,18.7928932 L80.4727316,18.7928932 L80.4727312,18.7929037 C80.4908547,18.323743 80.5,17.8522793 80.5,17.3786797 C80.5,-2.50357232 64.382252,-18.6213203 44.5,-18.6213203 C24.617748,-18.6213203 8.5,-2.50357232 8.5,17.3786797 C8.5,17.8522793 8.50914526,18.323743 8.52726841,18.7928932 L8.5,18.7928932 L8.5,90.7928932 L80.5,90.7928932 L80.5,90.7656248 C80.9691502,90.783748 81.4406139,90.7928932 81.9142136,90.7928932 C101.796466,90.7928932 117.914214,74.6751452 117.914214,54.7928932 C117.914214,34.9106412 101.796466,18.7928932 81.9142136,18.7928932 C81.4406139,18.7928932 80.9691502,18.8020385 80.4999895,18.820162 Z" transform="translate(63.000000, 36.292893) rotate(-45.000000) translate(-63.000000, -36.292893)" />
  </g>
</svg>
